<svg width="64" height="64" viewBox="0 0 64 64" fill="none" xmlns="http://www.w3.org/2000/svg">
<rect width="64" height="64" fill="#E8C7FE"/>
<path fill-rule="evenodd" clip-rule="evenodd" d="M51.5721 32.9469L48.6354 30.01C48.5199 29.8949 48.4283 29.758 48.3658 29.6073C48.3033 29.4566 48.2711 29.295 48.2711 29.1318V25.5376C48.2711 22.2157 47.9268 21.011 47.2765 19.7977C46.6407 18.5967 45.6591 17.6151 44.4592 16.9805C43.2455 16.3318 42.0404 15.9854 38.7208 15.9854H33.9699C33.9212 15.9847 33.8738 15.9697 33.8336 15.9424C33.7933 15.915 33.7619 15.8764 33.7433 15.8314C33.7247 15.7863 33.7196 15.7368 33.7288 15.6889C33.738 15.641 33.7609 15.5969 33.7949 15.5619L36.7302 12.625C36.9644 12.391 37.2817 12.2597 37.6124 12.26H39.2629C43.6909 12.26 45.2959 12.7205 46.9151 13.5859C48.515 14.4322 49.8238 15.7412 50.6715 17.3426C51.5366 18.9608 51.9976 20.5676 51.9976 24.9958V32.7716C51.9977 32.8212 51.9831 32.8697 51.9556 32.911C51.9281 32.9523 51.8889 32.9843 51.843 33.0032C51.7972 33.022 51.7468 33.0267 51.6983 33.0167C51.6498 33.0067 51.6068 32.9824 51.5721 32.9469ZM31.3105 51.5766L34.2473 48.6396C34.3632 48.5237 34.5008 48.4318 34.6522 48.3692C34.8035 48.3066 34.9657 48.2744 35.1295 48.2746H38.7208C42.0418 48.2746 43.2455 47.9282 44.4607 47.2795C45.6599 46.6446 46.641 45.663 47.2765 44.4623C47.9253 43.2491 48.2725 42.0443 48.2725 38.7225V33.972C48.2723 33.9227 48.2867 33.8744 48.314 33.8333C48.3412 33.7922 48.3801 33.7602 48.4256 33.7414C48.4712 33.7225 48.5212 33.7177 48.5695 33.7276C48.6178 33.7374 48.662 33.7615 48.6965 33.7967L51.6333 36.7336C51.7485 36.8489 51.8398 36.9858 51.902 37.1365C51.9643 37.2872 51.9963 37.4487 51.9962 37.6118V39.2642C51.9962 43.6924 51.5366 45.2992 50.6701 46.9174C49.8221 48.5183 48.5133 49.8267 46.9137 50.6727C45.2959 51.5395 43.6895 52 39.2615 52H31.487C31.4379 52.0003 31.3898 51.9859 31.3489 51.9588C31.308 51.9316 31.2761 51.8929 31.2572 51.8475C31.2383 51.8021 31.2332 51.7522 31.2427 51.7039C31.2522 51.6557 31.2758 51.6114 31.3105 51.5766ZM15.622 34.25L12.6852 31.3131C12.6505 31.2781 12.6062 31.2543 12.5579 31.2445C12.5096 31.2348 12.4596 31.2396 12.414 31.2584C12.3685 31.2772 12.3295 31.309 12.3021 31.35C12.2746 31.3909 12.2599 31.4391 12.2598 31.4884V39.2642C12.2598 43.6924 12.7208 45.2978 13.5873 46.9174C14.4348 48.5181 15.7431 49.8265 17.3422 50.6727C18.9615 51.5395 20.5665 52 24.9944 52H26.6449C26.9757 52.0003 27.2929 51.869 27.5271 51.635L30.4625 48.6981C30.4972 48.6633 30.5208 48.619 30.5303 48.5707C30.5398 48.5225 30.5348 48.4725 30.5159 48.4271C30.4969 48.3818 30.465 48.343 30.4241 48.3159C30.3832 48.2887 30.3351 48.2744 30.2861 48.2746H25.5365C22.2156 48.2746 21.0118 47.9282 19.7967 47.2795C18.5968 46.6449 17.6152 45.6633 16.9794 44.4623C16.3306 43.2476 15.9848 42.0443 15.9848 38.7225V35.1268C15.9848 34.964 15.9528 34.8027 15.8905 34.6522C15.8283 34.5018 15.737 34.3651 15.622 34.25ZM32.9468 12.6834L30.01 15.6204C29.8941 15.7363 29.7566 15.8282 29.6052 15.8908C29.4538 15.9535 29.2916 15.9856 29.1278 15.9854H25.538C22.217 15.9854 21.0132 16.3318 19.7981 16.9805C18.5983 17.6151 17.6166 18.5967 16.9808 19.7977C16.332 21.011 15.9863 22.2157 15.9863 25.5376V30.288C15.9861 30.3373 15.9714 30.3855 15.9439 30.4265C15.9165 30.4674 15.8775 30.4993 15.832 30.518C15.7865 30.5368 15.7364 30.5416 15.6881 30.5319C15.6399 30.5222 15.5956 30.4983 15.5608 30.4634L12.624 27.525C12.5088 27.41 12.4173 27.2734 12.3548 27.1229C12.2923 26.9725 12.26 26.8111 12.2598 26.6482V24.9958C12.2598 20.5676 12.7208 18.9608 13.5873 17.3426C14.4349 15.7419 15.7431 14.4335 17.3422 13.5873C18.9615 12.7205 20.5665 12.26 24.9944 12.26H32.7704C32.8192 12.2604 32.8667 12.2752 32.9072 12.3024C32.9477 12.3297 32.9793 12.3683 32.9981 12.4134C33.0169 12.4585 33.022 12.5081 33.0129 12.5561C33.0038 12.6041 32.9808 12.6484 32.9468 12.6834ZM41.3631 22.9314L45.367 26.7594C45.4022 26.7932 45.4465 26.8158 45.4945 26.8246C45.5424 26.8334 45.5919 26.8278 45.6367 26.8087C45.6816 26.7896 45.7198 26.7577 45.7467 26.717C45.7737 26.6763 45.7881 26.6286 45.7882 26.5798V23.4361C45.7867 22.1174 45.2626 20.8534 44.3311 19.9219C43.3996 18.9904 42.137 18.4678 40.821 18.4689H31.4016C31.0721 18.469 30.756 18.5997 30.5223 18.8325L27.5826 21.7694C27.5474 21.8041 27.5234 21.8486 27.5136 21.8971C27.5038 21.9456 27.5087 21.9959 27.5277 22.0415C27.5467 22.0872 27.5788 22.1262 27.6201 22.1534C27.6613 22.1806 27.7097 22.1948 27.7591 22.1943H39.5788C39.889 22.1943 40.1849 22.2513 40.4567 22.354C40.7882 22.4737 41.097 22.6676 41.3631 22.9314ZM37.4971 45.3748L41.3247 41.3686C41.5907 41.1034 41.7828 40.794 41.9038 40.4632C42.0062 40.1909 42.0631 39.8944 42.0631 39.585V27.7645C42.0633 27.7152 42.078 27.667 42.1055 27.6261C42.1329 27.5851 42.1719 27.5532 42.2174 27.5345C42.2629 27.5157 42.313 27.5109 42.3613 27.5206C42.4095 27.5303 42.4538 27.5542 42.4886 27.5891L45.4254 30.5289C45.6575 30.7615 45.7881 31.0768 45.7882 31.4058V40.8268C45.7871 42.1454 45.2633 43.4096 44.3321 44.3414C43.4008 45.2731 42.1384 45.7961 40.8224 45.7954H37.6779C37.6293 45.7952 37.5818 45.7809 37.5413 45.7541C37.5007 45.7273 37.4689 45.6892 37.4497 45.6445C37.4305 45.5998 37.4247 45.5505 37.4332 45.5025C37.4416 45.4546 37.4638 45.4102 37.4971 45.3748ZM22.8943 41.3272L18.8903 37.5006C18.8552 37.4669 18.811 37.4443 18.7632 37.4355C18.7154 37.4267 18.6661 37.4321 18.6213 37.451C18.5765 37.47 18.5382 37.5016 18.5112 37.5421C18.4842 37.5826 18.4696 37.6301 18.4692 37.6788V40.8239C18.4707 42.1426 18.9948 43.4066 19.9263 44.3381C20.8578 45.2696 22.1204 45.7922 23.4364 45.7911H32.8558C33.1855 45.7908 33.5017 45.6595 33.7351 45.4261L36.6747 42.4892C36.7094 42.4544 36.733 42.4101 36.7425 42.3618C36.752 42.3136 36.747 42.2636 36.7281 42.2182C36.7092 42.1728 36.6772 42.1341 36.6363 42.107C36.5954 42.0798 36.5474 42.0655 36.4983 42.0657H24.6785C24.3684 42.0657 24.0724 42.0087 23.7992 41.906C23.4589 41.7817 23.15 41.5842 22.8943 41.3272ZM26.7602 18.8881L22.9327 22.8943C22.6762 23.15 22.479 23.4591 22.355 23.7996C22.2511 24.0734 22.1942 24.3699 22.1942 24.6779V36.4998C22.1945 36.5493 22.18 36.5978 22.1525 36.6389C22.1251 36.6801 22.0859 36.7121 22.0402 36.7308C21.9944 36.7495 21.9441 36.7541 21.8957 36.7439C21.8474 36.7337 21.8032 36.7093 21.7688 36.6737L18.8334 33.7368C18.6012 33.5043 18.4707 33.1889 18.4706 32.86V23.4361C18.4721 22.1174 18.9962 20.8534 19.9277 19.9219C20.8592 18.9904 22.1218 18.4678 23.4378 18.4689H26.5823C26.6305 18.4696 26.6775 18.4842 26.7175 18.511C26.7575 18.5379 26.789 18.5758 26.8079 18.6201C26.8269 18.6645 26.8326 18.7134 26.8244 18.761C26.8162 18.8086 26.7944 18.8527 26.7616 18.8881H26.7602Z" fill="black"/>
</svg>
