<svg width="64" height="64" viewBox="0 0 64 64" fill="none" xmlns="http://www.w3.org/2000/svg">
<rect width="64" height="64" fill="white"/>
<path d="M49.9129 41.1926L32.3595 23.6392L23.6391 32.3595L41.1926 49.913C42.349 51.0694 43.9174 51.7191 45.5528 51.7191C47.1882 51.7191 48.7565 51.0694 49.9129 49.913C51.0693 48.7566 51.719 47.1882 51.719 45.5528C51.719 43.9174 51.0693 42.349 49.9129 41.1926V41.1926Z" fill="url(#paint0_linear_1504_2)"/>
<path d="M24.33 14.815C23.7574 14.2424 23.0776 13.7882 22.3295 13.4783C21.5814 13.1684 20.7796 13.0089 19.9698 13.0089C19.1601 13.0089 18.3582 13.1684 17.6101 13.4783C16.862 13.7882 16.1822 14.2424 15.6096 14.815C15.037 15.3876 14.5828 16.0673 14.273 16.8155C13.9631 17.5636 13.8036 18.3654 13.8036 19.1752C13.8036 19.9849 13.9631 20.7868 14.273 21.5349C14.5828 22.283 15.037 22.9628 15.6096 23.5354L20.718 28.6437L24.2656 25.1821C24.9558 24.5086 25.5055 23.7048 25.8827 22.8173C26.26 21.9298 26.4573 20.9763 26.4633 20.012C26.4693 19.0477 26.2838 18.0917 25.9176 17.1996C25.5514 16.3075 25.0118 15.497 24.33 14.815V14.815Z" fill="#43CBFF"/>
<path d="M49.9076 14.8061C49.3351 14.2335 48.6553 13.7793 47.9072 13.4694C47.1591 13.1595 46.3572 13 45.5475 13C44.7377 13 43.9359 13.1595 43.1877 13.4694C42.4396 13.7793 41.7599 14.2335 41.1873 14.8061L14.806 41.1927C13.6497 42.3491 13 43.9175 13 45.5529C13 47.1882 13.6497 48.7566 14.806 49.913C15.9624 51.0694 17.5308 51.7191 19.1662 51.7191C20.8016 51.7191 22.37 51.0694 23.5264 49.913L49.9076 23.5282C50.4805 22.9556 50.9349 22.2757 51.245 21.5274C51.555 20.7791 51.7146 19.9771 51.7146 19.1671C51.7146 18.3572 51.555 17.5551 51.245 16.8068C50.9349 16.0585 50.4805 15.3787 49.9076 14.8061Z" fill="#43CBFF"/>
<defs>
<linearGradient id="paint0_linear_1504_2" x1="49.9219" y1="49.9219" x2="27.9915" y2="27.9915" gradientUnits="userSpaceOnUse">
<stop stop-color="#43CBFF"/>
<stop offset="0.14" stop-color="#45B8FB"/>
<stop offset="0.725" stop-color="#4D6EEB"/>
<stop offset="0.996" stop-color="#5151E5"/>
</linearGradient>
</defs>
</svg>
